{"title":"Riddick (2013) CAMRip *PROPER*","uid":8921929,"size":1541308416,"categoryP":"video","categoryS":"movies","magnet":"?xt=urn:btih:c3dac720abea99a0773ff11717ba6991ec8e44aa&amp;dn=Riddick+%282013%29+CAMRip+%2APROPER%2A&amp;tr=udp%3A%2F%2Ftracker.openbittorrent.com%3A80&amp;tr=udp%3A%2F%2Fopen.demonii.com%3A1337&amp;tr=udp%3A%2F%2Ftracker.coppersurfer.tk%3A6969&amp;tr=udp%3A%2F%2Fexodus.desync.com%3A6969","seeders":8,"leechers":0,"uploader":"yfjfrj","files":-1,"time":1379273836,"description":"General\nComplete name                            : D:Riddick.2013.D.CAMRip.PROPER.avi\nFormat                                   : AVI\nFormat/Info                              : Audio Video Interleave\nFile size                                : 1.44 GiB\nDuration                                 : 1h 54mn\nOverall bit rate                         : 1 792 Kbps\nMovie name                               : Riddick.2013.D.CAMRip.PROPER.GOLIAF.TV\nDirector                                 : -=REGIS1975=-GOLIAF.TV=-\nGenre                                    : Action/Adventure/Fantasy\nWriting application                      : VirtualDubMod 1.5.10.2 (build 2540/release)\nOriginal source form/Name                : Movie\nComment                                  : CAMRip.PROPER\n\nVideo\nID                                       : 0\nFormat                                   : MPEG-4 Visual\nFormat profile                           : Advanced Simple@L5\nFormat settings, BVOP                    : 2\nFormat settings, QPel                    : No\nFormat settings, GMC                     : No warppoints\nFormat settings, Matrix                  : Default (MPEG)\nMuxing mode                              : Packed bitstream\nCodec ID                                 : XVID\nCodec ID/Hint                            : XviD\nDuration                                 : 1h 54mn\nBit rate                                 : 1 518 Kbps\nWidth                                    : 720 pixels\nHeight                                   : 304 pixels\nDisplay aspect ratio                     : 3:2\nOriginal display aspect ratio            : 2.35:1\nFrame rate                               : 29.970 fps\nColor space                              : YUV\nChroma subsampling                       : 4:2:0\nBit depth                                : 8 bits\nScan type                                : Progressive\nCompression mode                         : Lossy\nBits/(Pixel*Frame)                       : 0.231\nStream size                              : 1.22 GiB (85%)\nWriting library                          : XviD 64\n\nAudio #1\nID                                       : 1\nFormat                                   : AC-3\nFormat/Info                              : Audio Coding 3\nMode extension                           : CM (complete main)\nFormat settings, Endianness              : Big\nCodec ID                                 : 2000\nDuration                                 : 1h 54mn\nBit rate mode                            : Constant\nBit rate                                 : 128 Kbps\nChannel(s)                               : 2 channels\nChannel positions                        : Front: L R\nSampling rate                            : 48.0 KHz\nBit depth                                : 16 bits\nCompression mode                         : Lossy\nStream size                              : 105 MiB (7%)\nAlignment                                : Split accross interleaves\nInterleave, duration                     : 33 ms (1.00 video frame)\nInterleave, preload duration             : 500 ms\n\nAudio #2\nID                                       : 2\nFormat                                   : AC-3\nFormat/Info                              : Audio Coding 3\nMode extension                           : CM (complete main)\nFormat settings, Endianness              : Big\nCodec ID                                 : 2000\nDuration                                 : 1h 54mn\nBit rate mode                            : Constant\nBit rate                                 : 128 Kbps\nChannel(s)                               : 2 channels\nChannel positions                        : Front: L R\nSampling rate                            : 44.1 KHz\nBit depth                                : 16 bits\nCompression mode                         : Lossy\nStream size                              : 105 MiB (7%)\nAlignment                                : Split accross interleaves\nInterleave, duration                     : 33 ms (1.00 video frame)\nInterleave, preload duration             : 500 ms\n","torrent":{"xt":"urn:btih:c3dac720abea99a0773ff11717ba6991ec8e44aa","amp;dn":"Riddick+%282013%29+CAMRip+%2APROPER%2A","amp;tr":["udp%3A%2F%2Ftracker.openbittorrent.com%3A80","udp%3A%2F%2Fopen.demonii.com%3A1337","udp%3A%2F%2Ftracker.coppersurfer.tk%3A6969","udp%3A%2F%2Fexodus.desync.com%3A6969"],"infoHash":"c3dac720abea99a0773ff11717ba6991ec8e44aa","infoHashBuffer":{"type":"Buffer","data":[195,218,199,32,171,234,153,160,119,63,241,23,23,186,105,145,236,142,68,170]},"announce":[],"urlList":[]}}